<svg width="12" height="10" viewBox="0 0 12 10" fill="none" xmlns="http://www.w3.org/2000/svg">
<path fill-rule="evenodd" clip-rule="evenodd" d="M6.15559 1.44504C6.63297 0.96765 7.28045 0.699455 7.95559 0.699455C8.63072 0.699455 9.2782 0.96765 9.75559 1.44504C10.233 1.92243 10.5012 2.56991 10.5012 3.24504C10.5012 3.92017 10.233 4.56765 9.75559 5.04504L9.10059 5.70004L5.50059 9.30004L1.90058 5.70004L1.24558 5.04504C0.768195 4.56765 0.5 3.92017 0.5 3.24504C0.5 2.56991 0.768195 1.92243 1.24558 1.44504C1.72297 0.96765 2.37045 0.699455 3.04558 0.699455C3.72072 0.699455 4.36819 0.96765 4.84558 1.44504L5.50059 2.10004L6.15559 1.44504Z" stroke="#151515" stroke-linecap="round" stroke-linejoin="bevel"/>
</svg>
